<?xml version="1.0" standalone="no"?>
<!DOCTYPE svg PUBLIC "-//W3C//DTD SVG 20010904//EN"
 "http://www.w3.org/TR/2001/REC-SVG-20010904/DTD/svg10.dtd">
<svg version="1.0" xmlns="http://www.w3.org/2000/svg"
 width="256.000000pt" height="256.000000pt" viewBox="0 0 256.000000 256.000000"
 preserveAspectRatio="xMidYMid meet">

<g transform="translate(0.000000,256.000000) scale(0.100000,-0.100000)"
fill="#000000" stroke="none">
<path d="M1198 2549 c-267 -27 -512 -190 -634 -421 -116 -223 -128 -460 -34
-695 60 -148 141 -250 288 -361 40 -31 80 -68 87 -83 8 -15 17 -70 21 -123 l7
-96 347 0 348 0 7 103 7 102 52 50 c28 28 79 73 114 100 148 118 261 334 281
539 25 268 -88 542 -292 704 -122 98 -276 164 -412 177 -33 3 -71 7 -85 9 -14
1 -60 -1 -102 -5z m253 -164 c173 -45 332 -170 413 -325 58 -111 78 -191 79
-310 0 -238 -94 -416 -305 -574 -93 -70 -129 -124 -143 -213 l-7 -43 -208 0
-207 0 -7 43 c-14 86 -50 140 -144 212 -213 162 -305 337 -305 575 1 119 21
199 79 310 94 181 280 308 499 344 52 8 190 -2 256 -19z"/>
<path d="M956 619 c-34 -27 -35 -71 -1 -104 l24 -25 301 0 301 0 24 25 c34 33
33 77 -1 104 -26 20 -38 21 -324 21 -286 0 -298 -1 -324 -21z"/>
<path d="M950 360 c-11 -11 -20 -33 -20 -50 0 -17 9 -39 20 -50 19 -19 33 -20
330 -20 297 0 311 1 330 20 11 11 20 33 20 50 0 17 -9 39 -20 50 -19 19 -33
20 -330 20 -297 0 -311 -1 -330 -20z"/>
<path d="M1130 81 c25 -48 120 -86 181 -75 47 9 79 27 113 63 l30 31 -167 0
c-163 0 -167 -1 -157 -19z"/>
</g>
</svg>
