<?xml version="1.0" standalone="no"?>
<!DOCTYPE svg PUBLIC "-//W3C//DTD SVG 20010904//EN"
 "http://www.w3.org/TR/2001/REC-SVG-20010904/DTD/svg10.dtd">
<svg version="1.0" xmlns="http://www.w3.org/2000/svg"
 width="256.000000pt" height="256.000000pt" viewBox="0 0 256.000000 256.000000"
 preserveAspectRatio="xMidYMid meet">

<g transform="translate(0.000000,256.000000) scale(0.100000,-0.100000)"
fill="#000000" stroke="none">
<path d="M1943 1687 l-341 -342 -36 -164 c-20 -91 -34 -166 -32 -169 3 -2 77
12 165 31 l161 34 345 338 c190 186 345 340 345 344 0 3 -60 66 -133 139
l-132 132 -342 -343z m110 -139 l-297 -298 -33 32 -33 32 297 298 297 298 33
-32 33 -32 -297 -298z m85 -85 l-297 -297 -36 34 -35 34 297 298 298 298 35
-35 35 -35 -297 -297z m-328 -303 c0 -3 -28 -12 -62 -19 -56 -11 -63 -11 -80
7 -17 16 -18 24 -8 68 18 83 16 83 85 14 36 -36 65 -67 65 -70z"/>
<path d="M700 1953 c-236 -37 -350 -86 -391 -166 -12 -22 -72 -220 -135 -441
-64 -220 -126 -436 -140 -479 -48 -155 -27 -247 66 -294 62 -32 104 -29 238
17 64 21 151 44 192 51 181 28 514 -25 555 -88 14 -21 22 -23 114 -23 89 0 99
2 104 19 10 39 265 101 416 101 118 0 196 -14 336 -61 96 -33 130 -40 172 -37
94 8 157 80 155 179 -1 37 -152 593 -165 605 -2 2 -22 -16 -46 -40 l-42 -43
50 -198 c46 -184 49 -201 36 -232 -20 -47 -47 -50 -159 -14 -110 35 -245 61
-321 61 -63 0 -206 -24 -272 -46 -26 -9 -76 -29 -111 -46 -41 -20 -67 -27 -73
-21 -9 9 -28 633 -29 935 0 136 -8 125 116 158 168 44 401 33 546 -24 l57 -23
26 27 26 27 -63 28 c-186 84 -464 98 -695 34 -72 -20 -73 -20 -137 0 -112 34
-319 51 -426 34z m226 -83 c111 -19 193 -42 205 -56 14 -17 -5 -1042 -20
-1057 -5 -5 -26 0 -52 14 -143 73 -351 110 -502 90 -46 -6 -112 -20 -148 -30
-35 -11 -89 -27 -119 -36 -42 -13 -61 -14 -83 -6 -56 22 -55 27 64 498 60 241
115 450 120 465 16 39 48 64 105 83 126 41 309 56 430 35z"/>
</g>
</svg>
