<?xml version="1.0" standalone="no"?>
<!DOCTYPE svg PUBLIC "-//W3C//DTD SVG 20010904//EN"
 "http://www.w3.org/TR/2001/REC-SVG-20010904/DTD/svg10.dtd">
<svg version="1.0" xmlns="http://www.w3.org/2000/svg"
 width="618.000000pt" height="516.000000pt" viewBox="0 0 618.000000 516.000000"
 preserveAspectRatio="xMidYMid meet">

<g transform="translate(0.000000,516.000000) scale(0.100000,-0.100000)"
fill="#000000" stroke="none">
<path d="M4723 5115 c-168 -30 -374 -121 -514 -227 -182 -137 -339 -356 -408
-567 -45 -139 -55 -209 -55 -388 1 -95 -3 -173 -7 -173 -4 0 -43 11 -86 24
-184 58 -377 86 -586 86 -207 0 -387 -28 -599 -94 l-48 -14 0 127 c0 241 -29
380 -115 557 -67 139 -147 246 -262 354 -145 135 -318 233 -499 281 -99 27
-393 38 -499 20 -494 -86 -895 -500 -964 -995 -31 -222 11 -480 111 -681 120
-242 324 -441 560 -549 150 -68 264 -95 489 -114 l86 -7 -39 -104 c-43 -112
-88 -280 -110 -401 -18 -101 -18 -489 0 -590 51 -285 155 -549 303 -770 294
-438 726 -720 1264 -827 127 -25 530 -26 660 -1 611 116 1113 494 1388 1043
237 474 262 1028 70 1547 l-40 106 111 7 c282 18 477 81 671 220 206 146 363
356 439 586 75 226 75 516 0 746 -140 429 -525 747 -969 802 -116 14 -261 13
-352 -4z m439 -264 c100 -26 213 -79 296 -138 480 -342 535 -1033 115 -1434
-124 -118 -253 -192 -408 -234 -89 -24 -272 -30 -518 -15 -119 7 -219 11 -221
9 -2 -2 41 -105 96 -229 103 -232 175 -433 199 -555 10 -48 14 -145 14 -305
-1 -204 -4 -248 -23 -333 -70 -313 -210 -576 -431 -809 -201 -212 -401 -342
-660 -432 -196 -68 -276 -80 -546 -81 -215 0 -251 2 -343 23 -621 139 -1101
593 -1267 1198 -46 166 -58 290 -52 503 8 295 44 420 243 854 35 76 64 143 64
148 0 6 -116 7 -292 3 -240 -5 -307 -3 -369 9 -332 67 -603 317 -706 654 -24
80 -27 104 -27 253 -1 183 9 234 67 370 49 113 100 184 212 296 91 92 111 106
215 158 165 81 241 99 420 100 121 0 159 -4 230 -23 284 -76 512 -271 628
-536 48 -111 63 -180 69 -325 5 -117 1 -164 -26 -359 -18 -123 -30 -225 -28
-227 4 -4 141 42 374 125 224 79 325 96 588 96 296 0 336 -8 749 -155 126 -44
231 -79 233 -76 2 2 -12 116 -32 253 -31 209 -36 265 -32 358 19 427 329 784
758 875 74 16 323 4 411 -19z"/>
</g>
</svg>
